<?xml version="1.0" encoding="UTF-8" standalone="no"?>
<svg
   xmlns:dc="http://purl.org/dc/elements/1.1/"
   xmlns:cc="http://creativecommons.org/ns#"
   xmlns:rdf="http://www.w3.org/1999/02/22-rdf-syntax-ns#"
   xmlns:svg="http://www.w3.org/2000/svg"
   xmlns="http://www.w3.org/2000/svg"
   xmlns:sodipodi="http://sodipodi.sourceforge.net/DTD/sodipodi-0.dtd"
   xmlns:inkscape="http://www.inkscape.org/namespaces/inkscape"
   fill="#000000"
   height="24"
   viewBox="0 0 24 24"
   width="24"
   id="svg2"
   version="1.1"
   inkscape:version="0.91 r13725"
   sodipodi:docname="ic_folder_black_sync_problem_24px.svg"
   inkscape:export-filename="/home/julian/IdeaProjects/qabel-desktop/src/main/resources/ic_folder_black_sync_problem.png"
   inkscape:export-xdpi="240"
   inkscape:export-ydpi="240">
  <metadata
     id="metadata12">
    <rdf:RDF>
      <cc:Work
         rdf:about="">
        <dc:format>image/svg+xml</dc:format>
        <dc:type
           rdf:resource="http://purl.org/dc/dcmitype/StillImage" />
        <dc:title />
      </cc:Work>
    </rdf:RDF>
  </metadata>
  <defs
     id="defs10" />
  <sodipodi:namedview
     pagecolor="#ffffff"
     bordercolor="#666666"
     borderopacity="1"
     objecttolerance="10"
     gridtolerance="10"
     guidetolerance="10"
     inkscape:pageopacity="0"
     inkscape:pageshadow="2"
     inkscape:window-width="1920"
     inkscape:window-height="1141"
     id="namedview8"
     showgrid="false"
     inkscape:zoom="9.8333333"
     inkscape:cx="-33.050847"
     inkscape:cy="12"
     inkscape:window-x="1366"
     inkscape:window-y="27"
     inkscape:window-maximized="1"
     inkscape:current-layer="svg2" />
  <path
     d="M10 4H4c-1.1 0-1.99.9-1.99 2L2 18c0 1.1.9 2 2 2h16c1.1 0 2-.9 2-2V8c0-1.1-.9-2-2-2h-8l-2-2z"
     id="path4" />
  <path
     d="M0 0h24v24H0z"
     fill="none"
     id="path6" />
  <path
     inkscape:connector-curvature="0"
     style="fill:none"
     d="m 25.627119,-23.898305 24,0 0,23.99999992 -24,0 z"
     id="path4-0" />
  <path
     inkscape:connector-curvature="0"
     d="m 5.4406783,13.016949 c 0,1.42339 0.6837853,2.705085 1.7733334,3.632542 l -1.7733334,1.52 4.5084746,0 0,-3.864406 -1.6831638,1.442711 C 7.4544636,15.045763 6.9435032,14.086102 6.9435032,13.016949 c 0,-1.681017 1.2548587,-3.1108473 3.0056497,-3.6389829 l 0,-1.3461016 C 7.35678,8.6050848 5.4406783,10.614576 5.4406783,13.016949 Z m 6.0112997,3.220339 1.502824,0 0,-1.288136 -1.502824,0 0,1.288136 z m 7.514124,-8.3728812 -4.508475,0 0,3.8644062 1.683164,-1.442711 c 0.811526,0.702034 1.322486,1.661695 1.322486,2.730847 0,1.681017 -1.254859,3.110847 -3.00565,3.638983 l 0,1.346102 c 2.592373,-0.573221 4.508475,-2.582712 4.508475,-4.985085 0,-1.42339 -0.683785,-2.705085 -1.773333,-3.6325422 l 1.773333,-1.52 z m -7.514124,5.7966102 1.502824,0 0,-3.8644068 -1.502824,0 0,3.8644068 z"
     id="path6-7" />
  <path
     style="fill:#ffffff;fill-opacity:1"
     d="M 6.397838,17.390565 7.2684492,16.642204 6.9072851,16.297888 C 5.5112961,14.967023 5.0976856,12.824798 5.907071,11.117447 6.5236162,9.8168803 7.8466731,8.7199775 9.4027866,8.2192644 L 9.9185869,8.0532945 9.9182593,8.6913416 9.917931,9.329388 9.3351295,9.5858532 C 8.5079176,9.9498719 7.7994829,10.571394 7.4055422,11.278716 c -0.3583854,0.643481 -0.4671336,1.053552 -0.4671336,1.761477 0,0.895492 0.3757032,1.802957 1.0096323,2.438644 l 0.3122705,0.313135 0.8291378,-0.708486 0.8291377,-0.708485 0,1.881962 0,1.881963 -2.1956797,0 -2.1956797,0 0.8706105,-0.748361 z"
     id="path3348"
     inkscape:connector-curvature="0" />
  <path
     style="fill:#ffffff;fill-opacity:1"
     d="m 14.457627,17.330361 0,-0.626271 0.352755,-0.133748 c 0.546644,-0.207263 1.27974,-0.685583 1.634083,-1.066184 0.704716,-0.756936 1.023314,-1.536403 1.024652,-2.506859 0.0014,-0.959389 -0.358312,-1.809893 -1.052675,-2.489486 l -0.26713,-0.261447 -0.845842,0.719366 -0.845843,0.719365 0,-1.8819624 0,-1.8819622 2.19568,0 2.19568,0 -0.852749,0.7368567 -0.852749,0.7368573 0.362138,0.3426892 c 0.471982,0.4466344 1.040501,1.3778854 1.236283,2.0250664 0.21446,0.708927 0.213218,1.764433 -0.0029,2.479128 -0.35401,1.170599 -1.071205,2.110263 -2.157591,2.826856 -0.435761,0.287433 -1.516752,0.765004 -1.913633,0.845424 l -0.21014,0.04258 0,-0.626271 z"
     id="path4150"
     inkscape:connector-curvature="0" />
  <path
     style="fill:#ffffff;fill-opacity:1"
     d="m 11.477449,11.720081 0,-1.8994548 0.725941,0 0.72594,0 0,1.8994548 0,1.899453 -0.72594,0 -0.725941,0 0,-1.899453 z"
     id="path4152"
     inkscape:connector-curvature="0" />
  <path
     style="fill:#ffffff;fill-opacity:1"
     d="m 11.477449,15.584487 0,-0.589485 0.725941,0 0.72594,0 0,0.589485 0,0.589486 -0.72594,0 -0.725941,0 0,-0.589486 z"
     id="path4154"
     inkscape:connector-curvature="0" />
  <path
     style="fill:#ffffff;fill-opacity:1"
     d="m 6.4246446,17.393796 0.866852,-0.74513 -0.4631293,-0.499542 C 5.9471468,15.198619 5.5764075,14.272211 5.5670366,12.997299 5.5601236,12.052747 5.6780706,11.612676 6.1670762,10.75907 6.8236153,9.61302 8.2904934,8.532566 9.7037529,8.1540718 9.8783781,8.107306 9.8786013,8.108124 9.8565819,8.716372 L 9.8345279,9.3255087 9.2614167,9.5951741 C 7.7040295,10.327971 6.7760306,11.796243 6.9220068,13.29657 c 0.085791,0.881749 0.4355998,1.632558 1.0354471,2.222419 l 0.2997324,0.294743 0.8077743,-0.686563 0.8077752,-0.686563 0,1.849159 0,1.849161 -2.1574727,0 -2.1574719,0 0.8668512,-0.74513 z"
     id="path4156"
     inkscape:connector-curvature="0" />
</svg>
